<?xml version="1.0" encoding="UTF-8" standalone="no"?>
<!-- Created with Inkscape (http://www.inkscape.org/) -->

<svg
   xmlns:dc="http://purl.org/dc/elements/1.1/"
   xmlns:cc="http://creativecommons.org/ns#"
   xmlns:rdf="http://www.w3.org/1999/02/22-rdf-syntax-ns#"
   xmlns:svg="http://www.w3.org/2000/svg"
   xmlns="http://www.w3.org/2000/svg"
   xmlns:sodipodi="http://sodipodi.sourceforge.net/DTD/sodipodi-0.dtd"
   xmlns:inkscape="http://www.inkscape.org/namespaces/inkscape"
   width="200"
   height="200"
   id="svg2986"
   version="1.1"
   inkscape:version="0.48.1 r9760"
   sodipodi:docname="linkedin.svg"
   inkscape:export-filename="C:\Users\Raphael\Dropbox\facebook.png"
   inkscape:export-xdpi="22.5"
   inkscape:export-ydpi="22.5">
  <defs
     id="defs2988" />
  <sodipodi:namedview
     id="base"
     pagecolor="#ffffff"
     bordercolor="#666666"
     borderopacity="1.0"
     inkscape:pageopacity="0.0"
     inkscape:pageshadow="2"
     inkscape:zoom="0.98994949"
     inkscape:cx="56.97134"
     inkscape:cy="104.89968"
     inkscape:document-units="px"
     inkscape:current-layer="layer1"
     showgrid="true"
     inkscape:window-width="1280"
     inkscape:window-height="738"
     inkscape:window-x="156"
     inkscape:window-y="1"
     inkscape:window-maximized="0"
     fit-margin-top="0"
     fit-margin-left="0"
     fit-margin-right="0"
     fit-margin-bottom="0">
    <inkscape:grid
       type="xygrid"
       id="grid3843"
       empspacing="5"
       visible="true"
       enabled="true"
       snapvisiblegridlinesonly="true" />
  </sodipodi:namedview>
  <metadata
     id="metadata2991">
    <rdf:RDF>
      <cc:Work
         rdf:about="">
        <dc:format>image/svg+xml</dc:format>
        <dc:type
           rdf:resource="http://purl.org/dc/dcmitype/StillImage" />
        <dc:title />
      </cc:Work>
    </rdf:RDF>
  </metadata>
  <g
     inkscape:label="Layer 1"
     inkscape:groupmode="layer"
     id="layer1"
     transform="translate(-260,-332.36218)">
    <rect
       style="fill:#1c7ba9;fill-opacity:1;fill-rule:evenodd;stroke:none"
       id="rect3005-1"
       width="200"
       height="200"
       x="260"
       y="332.36218" />
    <path
       style="fill:#ffffff;fill-opacity:1;stroke:none"
       d="m 307.78125,366.3125 c -11.85551,0 -18.54092,6.48021 -17.75,17.1875 0.47313,6.40524 2.36149,9.39394 8.25,13.03125 4.96453,3.06656 14.0122,2.84244 18.96875,-0.46875 7.58602,-5.0678 9.95122,-14.6218 5.3125,-21.4375 -4.24183,-6.23253 -7.9268,-8.3125 -14.78125,-8.3125 z"
       id="path3785"
       inkscape:connector-curvature="0" />
    <path
       style="fill:#ffffff;fill-opacity:1;stroke:none"
       d="m 306.4375,368.40625 c 1.66525,-0.0891 3.3263,0.0661 4.9375,0.5 9.03073,2.43172 13.35897,10.51105 9.96875,18.625 -0.94125,2.25272 -3.0545,4.96127 -4.6875,6.03125 -6.36382,4.16973 -16.67433,2.87058 -21.65625,-2.71875 -3.19416,-3.5836 -3.62477,-11.40574 -0.875,-15.78125 2.44648,-3.89293 7.31675,-6.38905 12.3125,-6.65625 z"
       id="path3783"
       inkscape:connector-curvature="0" />
    <path
       style="fill:#ffffff;fill-opacity:1;stroke:none"
       d="m 392.5625,406.1875 c -8.50582,0.10127 -13.82917,2.04763 -19.71875,7.21875 l -4.125,3.625 -0.375,-4.34375 L 368,408.375 l -15.4375,0 -15.40625,0 -0.3125,44.84375 -0.3125,44.84375 15.96875,0 15.9375,0 0.34375,-28.28125 c 0.34326,-27.10994 0.47013,-28.42852 2.90625,-31.84375 3.19112,-4.47368 8.26502,-6.64092 13.5625,-5.78125 4.83589,0.78475 6.80433,2.23751 9.375,6.96875 1.5967,2.93867 1.97239,8.06354 2.3125,31.28125 l 0.40625,27.71875 15.625,-0.3125 15.59375,-0.3125 0.34375,-27.4375 c 0.46782,-37.52342 -1.53695,-46.29736 -12.84375,-56.25 -6.16803,-5.42931 -13.27967,-7.74669 -23.5,-7.625 z"
       id="path3781"
       inkscape:connector-curvature="0" />
    <path
       style="fill:#ffffff;fill-opacity:1;stroke:none"
       d="m 291.4375,408.375 -0.3125,44.84375 -0.28125,44.84375 16,0 16.03125,0 -0.28125,-44.84375 -0.3125,-44.84375 -15.4375,0 -15.40625,0 z"
       id="path3779"
       inkscape:connector-curvature="0" />
    <path
       style="fill:#ffffff;fill-opacity:1;stroke:none"
       d="m 390.9375,408.96875 c 1.38276,-0.002 2.99298,0.0695 5.03125,0.1875 11.07358,0.64104 18.11279,4.4127 23.65625,12.65625 5.31523,7.90417 6.09375,13.74399 6.09375,45.46875 l 0,28.5 -13.15625,0 -13.125,0 0,-26.25 c 0,-29.00084 -0.80394,-33.42701 -6.875,-37.75 -4.94936,-3.52425 -14.76273,-3.16221 -19.375,0.71875 -6.66045,5.60441 -6.90625,6.88304 -6.90625,36.375 l 0,26.90625 -13.6875,0 -13.6875,0 0.4375,-42.5625 0.4375,-42.5625 12.96875,0 12.96875,0 0.34375,5.40625 c 0.40672,6.33854 2.09694,6.98149 5.6875,2.125 1.35128,-1.82771 5.3185,-4.72804 8.8125,-6.4375 4.28012,-2.09407 6.22672,-2.77563 10.375,-2.78125 z"
       id="path3777"
       inkscape:connector-curvature="0" />
    <path
       style="fill:#ffffff;fill-opacity:1;stroke:none"
       d="m 306.84375,410.65625 13.15625,0 0.3125,42.5625 0.28125,42.5625 -13.15625,0 -13.15625,0 -0.15625,-41.125 c -0.0943,-22.62857 -0.21835,-41.80804 -0.28125,-42.59375 -0.0853,-1.06667 3.18667,-1.40625 13,-1.40625 z"
       id="path3003"
       inkscape:connector-curvature="0" />
  </g>
</svg>
